<svg xmlns="http://www.w3.org/2000/svg" version="1.1" xmlns:xlink="http://www.w3.org/1999/xlink" xmlns:svgjs="http://svgjs.dev/svgjs" width="1440" height="560" preserveAspectRatio="none" viewBox="0 0 1440 560"><g mask="url(&quot;#SvgjsMask1055&quot;)" fill="none"><rect width="1440" height="560" x="0" y="0" fill="rgba(247, 243, 237, 1)"></rect><path d="M0,405.137C102.621,407.826,207.889,513.2,296.457,461.296C384.052,409.962,344.618,268.977,388.538,177.439C433.745,83.218,561.171,24.421,556.152,-79.963C551.186,-183.25,446.186,-252.308,364.807,-316.107C294.439,-371.274,208.356,-392.301,123.153,-419.422C35.836,-447.216,-49.436,-490.761,-139.999,-476.793C-236.512,-461.907,-323.423,-409.157,-392.292,-339.923C-464.293,-267.541,-525.138,-178.622,-537.421,-77.269C-549.593,23.176,-502.61,118.321,-458.882,209.564C-415.868,299.317,-378.195,406.992,-286.636,446.014C-196.016,484.636,-98.473,402.556,0,405.137" fill="#decdb4"></path><path d="M1440 1263.502C1570.47 1258.394 1631.757 1098.12 1732.263 1014.771 1817.896 943.756 1946.874 913.5699999999999 1987.056 809.832 2027.016 706.667 1957.183 597.276 1936.038 488.681 1916.126 386.419 1933.535 270.19 1866.459 190.47199999999998 1799.173 110.505 1683.304 102.202 1583.845 70.108 1481.445 37.065000000000055 1380.162-25.20799999999997 1275.505-0.2179999999999609 1169.519 25.089000000000055 1109.9270000000001 131.19799999999998 1027.849 202.86900000000003 930.351 288.005 773.401 333.591 747.902 460.491 722.565 586.587 835.906 696.273 907.195 803.3240000000001 968.597 895.529 1048.811 965.837 1132.649 1038.247 1230.7649999999999 1122.989 1310.454 1268.574 1440 1263.502" fill="#ffffff"></path></g><defs><mask id="SvgjsMask1055"><rect width="1440" height="560" fill="#ffffff"></rect></mask></defs></svg>